C:\Users\gl24\Desktop\Patient 3 Collaboration with Marleny\nms_results\Right\EMG Files\Patient3_NormalGait_1pt0_02_Right_01_EMG.mot
version=1
nRows=21
nColumns=29
inDegrees=no
endheader
time	AddMag	AddLong	GlutMaxMed	GlutMed	Iliopsoas	Sartorius	SemiMemb	SemiTend	BicFemLong	RecFem	TenFascLat	Gracilis	BicFemShort	VastMed	VastLat	VastInt	GasMed	GasLat	TibAnt	TibPost	ExtHalLong	FlexHalLong	PeroneusLong	Sol	ExtDigLong	GlutMaxLat	FlexDigLong	RecFem2
1.27	0.0071716	0.00061035	-0.026703	0.007782	0.0047302	0.011444	-0.0019836	0.0086975	0.0062561	-0.007019	0.056	-0.0021362	0.020599	0.0013733	0.0012207	-0.0047302	1.498	-0.050812	0.0042725	-0.00061035	-0.0013733	0.0042725	0.070038	0.383	0.0042725	0.00076294	-0.0022888	-0.013275
1.271	-0.0012207	0.0073242	-0.019379	0.0062561	0.0054932	-0.0064087	-0.0053406	0.0065613	0	-0.018005	0.077057	-0.011597	0.018005	0.0057983	0.0022888	-0.00076294	0.90225	-0.036163	0.013733	0.0019836	-0.015259	-0.0016785	0.094604	-0.024414	0.0028992	-0.010376	-0.0036621	-0.012665
1.272	0.0090027	0.0022888	-0.013733	0.0083923	0.0065613	0.00061035	-0.0010681	0.005188	0.0018311	-0.0062561	0.085602	-0.002594	0.014648	0.012054	0.004425	0.004425	0.78186	-0.045319	0.015717	0.0028992	-0.023804	-0.0086975	0.050507	-0.12299	0.0022888	0.01236	0.0079346	-0.0064087
1.273	-0.00076294	0.0056457	0.00015259	0.010681	0.0013733	-0.014954	-0.0099182	0.0050354	0.0027466	-0.011291	0.10971	-0.0030518	0.010071	0.0022888	0.0019836	-0.0021362	0.7251	-0.034943	0.0057983	-0.00076294	-0.020599	-0.010834	0.036011	-0.19592	0.0016785	0.0082398	-0.0057983	-0.0016785
1.274	-0.0056457	0.0099182	-0.0073242	0.010834	0.0048828	-0.0065613	0.0088501	0.005188	0.0053406	-0.023041	0.030975	0.012512	0.010681	0.013733	-0.00091553	0.00015259	0.31754	-0.047302	-0.018311	-0.0021362	0.00030518	-0.015717	0.045471	-0.19898	0.0041199	0.0010681	-0.0013733	-0.0099182
1.275	-0.004425	0.0028992	0.012665	0.0076294	0.0048828	0.0015259	-0.0010681	-0.00015259	0.0032043	-0.018463	0.048828	0.0064087	0.013428	0.0038147	-0.00030518	0.0028992	0.1442	0.030212	-0.020904	0.0019836	0.020294	-0.016174	-0.019684	0.052033	0.0033569	0.0068665	-0.0076294	-0.00045776
1.276	-0.0045776	0.0079346	-0.00076294	0.012054	0.0061035	0.010376	0.0016785	0.0064087	0.0050354	-0.0061035	0.07782	-0.00091553	0.019226	0.0057983	0.0012207	-0.0030518	0.15167	0.033417	-0.031586	0.002594	0.028381	-0.015106	-0.015106	0.042114	0.0035095	-0.0097656	-0.00076294	0.0086975
1.277	-0.0094605	0.0041199	0.0036621	0.0074768	0.014038	0.011139	-0.0018311	0.0028992	0.0068665	-0.0083923	0.060577	-0.0082398	0.0067139	0.0086975	0.0047302	0.0021362	0.14297	-0.063171	-0.032501	0.0091553	0.0062561	-0.0088501	0.018616	-0.070801	-0.0039673	0.00091553	-0.0030518	0.0033569
1.278	0.0053406	0.0057983	0.010834	0.0054932	0.0057983	-0.0028992	-0.00015259	0.0061035	0.0035095	-0.0047302	0.049439	-0.002594	0.0048828	0.0076294	0.0041199	-0.0019836	0.11337	0.033569	-0.043487	0.00030518	-0.0039673	-0.0024414	0.0010681	-0.0354	0.0033569	0.00076294	-0.0045776	0.0053406
1.279	0.0056457	0.0041199	0.011139	0.0065613	0.016785	0.0036621	0.0045776	0.0033569	0.009613	-0.0057983	0.039368	0.010529	0.014801	0.010681	0.0032043	0.0061035	0.10407	0.078583	-0.0062561	-0.0024414	-0.011902	-0.20645	-0.081329	-0.17746	0.0013733	0.007782	-0.0027466	0.01297
1.28	0.0061035	0.0057983	-0.00091553	0.0061035	-0.00045776	0.0062561	-0.0012207	0.00045776	0.0056457	-0.015106	0.057831	0.0015259	0.0099182	0.007782	0.0076294	0	0.074616	-0.014343	0.063019	-0.016785	-0.010223	-0.17807	-0.043182	-0.18707	0.0056457	0.014801	-0.0012207	0.004425
1.281	0.007782	0.0067139	0.0050354	0.007782	0.015564	0.0080872	-0.00045776	0.005188	0.004425	0.0021362	0.037384	0.011139	0.0054932	0.0076294	0.0042725	-0.0018311	0.011597	-0.050354	0.044098	-0.010376	-0.013275	0.39139	-0.0057983	-0.12772	0.002594	0.013275	-0.0030518	0.0045776
1.282	0.0079346	0.0048828	-0.00030518	0.0047302	0.0016785	-0.00045776	-0.0027466	0.0054932	0.0059509	-0.030518	0.046234	0.004425	0.0067139	0.0028992	0.0032043	0.0010681	-0.04425	-0.12726	0.013275	-0.0015259	-0.019379	0.095367	-0.029297	-0.28168	0.00091553	-0.011597	-0.0038147	0.0061035
1.283	-0.0028992	0.0054932	-0.0088501	0.005188	0.0038147	-0.0027466	0.00061035	0.011291	0.002594	0.013733	0.059051	0.0048828	0.0082398	0.0097656	-0.00015259	0.0073242	-0.072022	-0.10239	0.0093079	-0.0010681	-0.011902	-0.022125	-0.018768	-0.35202	0.004425	-0.0062561	0.0024414	0.017853
1.284	0.014343	0.0065613	-0.0033569	0.0036621	0.0054932	0.0064087	0.0010681	0.0039673	0.0010681	0.0082398	0.029449	-0.0045776	0.00061035	0.009613	0.0064087	0.0030518	-0.215	-0.0035095	0.0056457	0.0047302	-0.0013733	-0.020142	-0.02594	-0.33432	0.00076294	-0.0091553	-0.0033569	0.011291
1.285	0.0041199	0.0064087	-0.012665	0.0076294	0.0061035	-0.0057983	0.005188	0.0062561	0.0035095	0.0067139	0.033722	-0.007782	0.0048828	0.0093079	0.0018311	0.0021362	-0.4126	-0.016632	-0.0061035	0.0042725	0.0048828	-0.011139	-0.037842	-0.35568	0.0021362	0.01648	-0.0033569	0.0086975
1.286	0.0016785	0.0045776	-0.039063	0.0024414	0.0041199	0.011902	0.0022888	0.0076294	0.0033569	0.0022888	0.042267	-0.0032043	0.0080872	0.0061035	0.00091553	0.0065613	-0.45075	-0.0038147	-0.016174	0.00091553	0.0032043	-0.010071	-0.097351	-0.37476	0.0021362	-0.015259	-0.0033569	0.0030518
1.287	-0.0030518	0.0021362	-0.049133	0.0062561	0	-0.0042725	0.0013733	0.0093079	0.0024414	-0.0076294	0.027924	0.0054932	0.0050354	0.0082398	0.0019836	0.0030518	-0.33066	-0.041046	-0.015717	-0.010986	-0.0030518	0.00030518	-0.098267	-0.51193	-0.0015259	-0.036316	-0.0038147	0.01358
1.288	0.0088501	0.0039673	-0.053864	0.007782	0.005188	0.002594	-0.0016785	0.0013733	0.0065613	-0.00045776	0.03891	0.007019	0.005188	0.0093079	0.002594	0.0053406	-0.099793	-0.10605	0.0022888	0.00061035	0.0093079	-0.0039673	-0.080109	-0.38834	0.00015259	-0.024872	-0.0035095	0.0064087
1.289	0	0.0022888	-0.078278	0.0082398	0.004425	-0.00061035	0.0030518	0.0038147	0.0047302	0.0012207	0.031738	0.0045776	0.002594	0.010529	0.0021362	0.0021362	0.18478	-0.15335	-0.0016785	0.0045776	0.0059509	-0.010529	-0.030212	0.17151	0.0019836	-0.031128	-0.0038147	0.0076294
1.29	-0.0045776	0.0047302	-0.06958	0.0057983	0.0090027	0.0062561	0.0050354	0.0036621	0.00030518	-0.00091553	0.037079	0.011444	0.0080872	0.011444	0.0056457	0.0032043	0.18692	-0.17639	-0.00076294	-0.018158	0.0039673	-0.010376	0.014648	0.13962	0.0035095	-0.021667	-0.0042725	0.0093079
